# xmcd
#
# Track frame offsets:
#	150
#	14980
#	33976
#	56714
#	82848
#	93907
#	118060
#	136880
#
# Disc length: 2026 seconds
#
# Revision: 0
# Processed by: cddbd v1.5.2PL0 Copyright (c) Steve Scherf et al.
# Submitted via: dBpowerAMP V4.0
#
DISCID=6407e808
DTITLE=romano mussolini - music blues
DYEAR=2000
DGENRE=Blues
TTITLE0=remember fats
TTITLE1=blues for dizzy
TTITLE2=minor blues in Sant Louis
TTITLE3=soft blues blues blues
TTITLE4=il volo del calabrone
TTITLE5=czardas-tango della gelosia
TTITLE6=arlecchinata-la strada
TTITLE7=bellezza in bicicletta
EXTD=   \n
EXTT0=
EXTT1=
EXTT2=
EXTT3=
EXTT4=
EXTT5=
EXTT6=
EXTT7=
PLAYORDER=
